<?xml version="1.0" ?><svg id="Layer_1" style="enable-background:new 0 0 66 66;" version="1.1" viewBox="0 0 66 66" xml:space="preserve" xmlns="http://www.w3.org/2000/svg" xmlns:xlink="http://www.w3.org/1999/xlink"><g><path d="M64.9,30.1c-1.4,9.6-5.5,18.4-11.9,25.7l-2.4,2.7l0.8,0.3c0.5,0.2,0.8,0.8,0.6,1.3l-1.7,4.2c-0.2,0.4-0.5,0.6-0.9,0.6   c-0.1,0-0.2,0-0.4-0.1c-0.5-0.2-0.8-0.8-0.6-1.3l1.3-3.3l-10.5-4.2h0c-0.2,0-0.4-0.1-0.5-0.2l-0.8-0.3l-2.8,7   c-0.2,0.5-0.8,0.8-1.3,0.6c-0.5-0.2-0.8-0.8-0.5-1.3l3.2-7.9c0.1-0.2,0.3-0.4,0.5-0.5c0.2-0.1,0.5-0.1,0.8,0l0.7,0.3l0.4-5.5   c0,0,0-0.1,0-0.1c0.5-3,3-5.4,6-5.8l5-4.1c0.5-0.4,1.1-0.6,1.7-0.7V21.8c0-0.6,0.4-1,1-1h5.8l-6.8-6c-0.2-0.2-0.3-0.5-0.3-0.8V5.1   h-2.8v6.5c0,0.4-0.2,0.7-0.5,0.9c-0.3,0.2-0.7,0.1-1-0.1L33,3.2L8.2,20.8h5.3c0.6,0,1,0.4,1,1v15.6c0.6,0.1,1.2,0.3,1.6,0.7l5,4.1   c3.1,0.4,5.5,2.7,6,5.8c0,0,0,0.1,0,0.1l0.4,5.5l0.7-0.3c0.5-0.2,1.1,0,1.3,0.6l3.2,7.9c0.2,0.5,0,1.1-0.6,1.3   c-0.5,0.2-1.1,0-1.3-0.6l-2.8-7l-0.8,0.3c-0.2,0.1-0.3,0.2-0.5,0.2h0l-10.5,4.2l1.1,2.8c0.2,0.5,0,1.1-0.6,1.3   c-0.1,0.1-0.2,0.1-0.4,0.1c-0.4,0-0.8-0.2-0.9-0.6L14,60.1c-0.2-0.5,0-1.1,0.6-1.3l0.8-0.3L13,55.8C6.6,48.5,2.5,39.6,1.1,30.1   c-0.1-0.9,0.1-1.9,0.7-2.6c0.6-0.7,1.4-1.2,2.4-1.3c1.3-0.1,2.6,0.5,3.3,1.7c0,0,0,0.1,0,0.1l4.4,10.3c0,0,0.1-0.1,0.1-0.1   c0.1-0.1,0.3-0.2,0.4-0.3v-15H5.1c-0.4,0-0.8-0.3-0.9-0.7c-0.1-0.4,0-0.9,0.4-1.1L32.4,1.2c0.3-0.2,0.8-0.2,1.1,0l12.8,8.5V4.1   c0-0.6,0.4-1,1-1h4.8c0.6,0,1,0.4,1,1v9.6l8.4,7.4c0.3,0.3,0.4,0.7,0.3,1.1c-0.2,0.4-0.5,0.6-0.9,0.6h-7.4v15   c0.1,0.1,0.3,0.2,0.4,0.3c0.1,0,0.1,0.1,0.1,0.1L58.5,28c0,0,0-0.1,0.1-0.1c0.7-1.2,2-1.9,3.3-1.7c0.9,0.1,1.8,0.6,2.4,1.3   C64.8,28.2,65,29.1,64.9,30.1z"/><path d="M27.6,59.4c-0.2-0.5-0.8-0.8-1.3-0.6c-0.5,0.2-0.8,0.8-0.6,1.3l0.8,2.1c0.2,0.4,0.5,0.6,0.9,0.6c0.1,0,0.2,0,0.4-0.1   c0.5-0.2,0.8-0.8,0.6-1.3L27.6,59.4z"/><path d="M39.7,58.8c-0.5-0.2-1.1,0.1-1.3,0.6l-0.7,2.1c-0.2,0.5,0.1,1.1,0.6,1.3c0.1,0,0.2,0.1,0.3,0.1c0.4,0,0.8-0.3,0.9-0.7   l0.7-2.1C40.5,59.6,40.2,59,39.7,58.8z"/><path d="M40.5,18.7H23.8c-0.5,0-1,0.4-1,1v16.7c0,0.6,0.5,1,1,1h16.7c0.6,0,1-0.4,1-1V19.7C41.5,19.1,41.1,18.7,40.5,18.7z    M31.2,27h-6.4v-6.4h6.4V27z M39.5,35.4h-6.4V29h6.4V35.4z"/></g></svg>